<svg id="_16-express" data-name="16-express" xmlns="http://www.w3.org/2000/svg" width="78.604" height="69.87" viewBox="0 0 78.604 69.87">
  <g id="linear_color" data-name="linear color" transform="translate(0 0)">
    <path id="Path_74" data-name="Path 74" d="M196.6,26.669l2.007-2.007a1.871,1.871,0,1,0-2.647-2.647L193.871,24.1a27.986,27.986,0,0,0-12.184-5.815V13.981h1.872a1.872,1.872,0,0,0,1.872-1.872V5.872A1.871,1.871,0,0,0,183.559,4H168.587a1.872,1.872,0,0,0-1.872,1.872V12.11a1.872,1.872,0,0,0,1.872,1.872h1.872v4.307A27.986,27.986,0,0,0,158.274,24.1l-2.089-2.089a1.871,1.871,0,1,0-2.647,2.647l2.007,2.007a28.073,28.073,0,1,0,41.054,0ZM170.458,7.743h11.229v2.5H170.458Zm3.743,6.238h3.743v3.807c-.619-.041-1.243-.064-1.872-.064s-1.253.023-1.872.064Zm1.872,56.145A24.33,24.33,0,1,1,200.4,45.8,24.357,24.357,0,0,1,176.073,70.127Z" transform="translate(-125.542 -4)" fill="#fff"/>
    <path id="Path_75" data-name="Path 75" d="M216.587,140a20.587,20.587,0,1,0,20.587,20.587A20.61,20.61,0,0,0,216.587,140Zm16.739,18.715H218.458V143.848A16.875,16.875,0,0,1,233.326,158.715ZM216.587,177.43a16.844,16.844,0,0,1-1.872-33.583v16.739a1.872,1.872,0,0,0,1.872,1.872h16.739A16.867,16.867,0,0,1,216.587,177.43Z" transform="translate(-166.056 -118.79)" fill="#fff"/>
    <path id="Path_76" data-name="Path 76" d="M58.348,188H45.872a1.872,1.872,0,0,0,0,3.743H58.348a1.872,1.872,0,1,0,0-3.743Z" transform="translate(-37.762 -159.303)" fill="#fff"/>
    <path id="Path_77" data-name="Path 77" d="M44.22,285.871A1.872,1.872,0,0,0,42.348,284H29.872a1.872,1.872,0,1,0,0,3.743H42.348A1.872,1.872,0,0,0,44.22,285.871Z" transform="translate(-24.257 -240.331)" fill="#fff"/>
    <path id="Path_78" data-name="Path 78" d="M70.605,332H61.872a1.872,1.872,0,0,0,0,3.743h8.734a1.872,1.872,0,1,0,0-3.743Z" transform="translate(-51.266 -280.845)" fill="#fff"/>
    <path id="Path_79" data-name="Path 79" d="M23.963,237.872A1.872,1.872,0,0,0,22.091,236H5.872a1.871,1.871,0,1,0,0,3.743h16.22A1.871,1.871,0,0,0,23.963,237.872Z" transform="translate(-4 -199.817)" fill="#fff"/>
  </g>
</svg>
