<svg xmlns="http://www.w3.org/2000/svg" width="99.656" height="76.387" viewBox="0 0 99.656 76.387">
  <g id="baseball-cap" transform="translate(-1.001 -59.787)">
    <g id="Group_34" data-name="Group 34" transform="translate(1.001 59.787)">
      <g id="Group_33" data-name="Group 33" transform="translate(0)">
        <path id="Path_99" data-name="Path 99" d="M100.057,122.547l-18.6-15.424c-.344-3.348-2.856-22.361-16.344-33.808a35.911,35.911,0,0,0-21.344-8.351,8.422,8.422,0,0,0-16.012,1.511c-.5.133-.96.3-1.443.452-.031.011-.061.016-.091.029A32.956,32.956,0,0,0,9.6,78.087C-1.736,92.533,1.347,113.26,1.483,114.134a1.661,1.661,0,0,0,2.606,1.1A9.129,9.129,0,0,1,8.9,113.9a10.029,10.029,0,0,1,4.993,1.647,1.618,1.618,0,0,0,.206.441c.636.859,15.087,20.184,27.741,20.183a11.817,11.817,0,0,0,1.687-.119c4.841-.7,10.118-2.96,15.7-5.352,8.8-3.768,18.786-8.04,29.043-7l10.445,1.764a1.644,1.644,0,0,0,1.787-.945A1.663,1.663,0,0,0,100.057,122.547ZM77.943,105.9c-1.488-.122-3.707-.278-6.421-.4L71.3,103.87c0-.049-.013-.1-.021-.145-.374-1.956-3.389-17.375-7.424-27.05C74.1,86.046,77.156,100.641,77.943,105.9ZM35.975,63.109a5.165,5.165,0,0,1,3.882,1.749c-1.207.018-2.425.06-3.675.167-1.6.136-3.129.351-4.623.615A5.111,5.111,0,0,1,35.975,63.109ZM24.035,78.98a17.666,17.666,0,0,1,3.76-9.035,44.048,44.048,0,0,1,8.671-1.611A36.859,36.859,0,0,1,57.792,72.3c.008.012.008.027.016.039.485.718.936,1.446,1.339,2.167,4.729,8.368,8.684,28.849,8.871,29.83q.015.13.039.309l.1.742a150.984,150.984,0,0,0-19.826.7,193.469,193.469,0,0,0-22.671,4.118C25.07,106.19,22.537,87.814,24.035,78.98ZM8.9,110.581a12.846,12.846,0,0,0-4.372.772c-.439-5.638-.667-20.586,7.7-31.231a28.766,28.766,0,0,1,10.5-8.286,26.245,26.245,0,0,0-1.96,6.589c-1.639,9.68,1.136,29.1,1.658,32.577-3.156.791-5.544,1.45-6.691,1.775A13.405,13.405,0,0,0,8.9,110.581Zm79.819,9.828c-11.235-1.136-21.624,3.314-30.795,7.241-5.381,2.3-10.463,4.479-14.874,5.118-8.423,1.227-19.968-10.8-25.057-17.174a216.55,216.55,0,0,1,30.7-6.2A164.342,164.342,0,0,1,78.9,109.32l14.282,11.841Z" transform="translate(-1.001 -59.787)" fill="#fff"/>
      </g>
    </g>
  </g>
</svg>
