<svg xmlns="http://www.w3.org/2000/svg" width="68.731" height="66.777" viewBox="0 0 68.731 66.777">
  <path id="bicep" d="M72.016,27.244a1.964,1.964,0,0,1,1.72,1.949V69.8a1.964,1.964,0,0,1-1.964,1.964,24.779,24.779,0,0,1-19.708-9.594C48.351,65.521,39.14,72.778,28.912,72.777H28.8c-5.912-.031-11.185-2.48-15.673-7.28C-2,49.319,7.728,22.457,12.611,11.66A8.99,8.99,0,0,1,20.638,6h5.8c3.547,0,6.433,3.332,6.433,7.427,0,4.268-3,7.739-6.689,7.739H24.852L26.41,42.119c2.675-2.389,6.875-5.256,12.026-5.789a17.556,17.556,0,0,1,12.5,3.75C54.017,35.9,62.4,26.052,72.016,27.244ZM38.863,40.235c-7.2.732-12.466,7.557-12.516,7.623A1.964,1.964,0,0,1,22.82,46.82L20.777,19.348a1.965,1.965,0,0,1,1.959-2.11h3.448c1.5,0,2.76-1.745,2.76-3.811,0-1.9-1.147-3.5-2.505-3.5h-5.8a5.136,5.136,0,0,0-4.448,3.351C11.631,23.359,2.487,48.364,16,62.814c3.717,3.976,8.027,6.006,12.809,6.035C40.185,68.92,50.836,57.915,50.942,57.8a1.967,1.967,0,0,1,1.419-.606,2.043,2.043,0,0,1,.242.014,1.966,1.966,0,0,1,1.466.978,21.157,21.157,0,0,0,15.739,9.555V31.087C61.02,31.6,53.08,43.854,53,43.985a1.965,1.965,0,0,1-2.947.423C46.435,41.252,42.671,39.851,38.863,40.235Z" transform="translate(-5.005 -6)" fill="#fff"/>
</svg>
