<svg xmlns="http://www.w3.org/2000/svg" width="53.191" height="69.517" viewBox="0 0 53.191 69.517">
  <g id="clipboard" transform="translate(0.5 0.5)">
    <path id="Path_59" data-name="Path 59" d="M138.963,133.38h4.579a1.649,1.649,0,0,0,1.648-1.647v-4.574a1.649,1.649,0,0,0-1.648-1.647h-4.579a1.649,1.649,0,0,0-1.648,1.647v4.574A1.649,1.649,0,0,0,138.963,133.38Zm.375-5.846h3.828v3.824h-3.828Z" transform="translate(-127.104 -108.716)" fill="#fff" stroke="#fff" stroke-width="1"/>
    <path id="Path_60" data-name="Path 60" d="M138.963,211.571h4.579a1.649,1.649,0,0,0,1.648-1.647v-4.578a1.649,1.649,0,0,0-1.648-1.647h-4.579a1.649,1.649,0,0,0-1.648,1.647v4.578A1.65,1.65,0,0,0,138.963,211.571Zm.375-5.851h3.828v3.828h-3.828Z" transform="translate(-127.104 -176.441)" fill="#fff" stroke="#fff" stroke-width="1"/>
    <path id="Path_61" data-name="Path 61" d="M138.963,289.782h4.579a1.649,1.649,0,0,0,1.648-1.647V283.56a1.649,1.649,0,0,0-1.648-1.647h-4.579a1.649,1.649,0,0,0-1.648,1.647v4.574A1.65,1.65,0,0,0,138.963,289.782Zm.375-5.846h3.828v3.824h-3.828Z" transform="translate(-127.104 -244.19)" fill="#fff" stroke="#fff" stroke-width="1"/>
    <path id="Path_62" data-name="Path 62" d="M269.849,134.37h6.235a1.011,1.011,0,1,0,0-2.022h-6.235a1.011,1.011,0,1,0,0,2.022Z" transform="translate(-241.028 -114.639)" fill="#fff" stroke="#fff" stroke-width="1"/>
    <path id="Path_63" data-name="Path 63" d="M219.986,134.37h2.658a1.011,1.011,0,1,0,0-2.022h-2.658a1.011,1.011,0,1,0,0,2.022Z" transform="translate(-197.837 -114.639)" fill="#fff" stroke="#fff" stroke-width="1"/>
    <path id="Path_64" data-name="Path 64" d="M219.986,164.362h12.907a1.011,1.011,0,1,0,0-2.022H219.986a1.011,1.011,0,1,0,0,2.022Z" transform="translate(-197.837 -140.617)" fill="#fff" stroke="#fff" stroke-width="1"/>
    <path id="Path_65" data-name="Path 65" d="M219.986,212.586h12.907a1.011,1.011,0,1,0,0-2.022H219.986a1.011,1.011,0,1,0,0,2.022Z" transform="translate(-197.837 -182.389)" fill="#fff" stroke="#fff" stroke-width="1"/>
    <path id="Path_66" data-name="Path 66" d="M219.986,368.988h4.063a1.011,1.011,0,1,0,0-2.022h-4.063a1.011,1.011,0,1,0,0,2.022Z" transform="translate(-197.837 -317.862)" fill="#fff" stroke="#fff" stroke-width="1"/>
    <path id="Path_67" data-name="Path 67" d="M219.986,398.98h2.508a1.011,1.011,0,1,0,0-2.022h-2.508a1.011,1.011,0,1,0,0,2.022Z" transform="translate(-197.837 -343.841)" fill="#fff" stroke="#fff" stroke-width="1"/>
    <path id="Path_68" data-name="Path 68" d="M219.986,242.577h6.235a1.011,1.011,0,1,0,0-2.022h-6.235a1.011,1.011,0,1,0,0,2.022Z" transform="translate(-197.837 -208.366)" fill="#fff" stroke="#fff" stroke-width="1"/>
    <path id="Path_69" data-name="Path 69" d="M299.239,240.555H296.58a1.011,1.011,0,1,0,0,2.022h2.658a1.011,1.011,0,1,0,0-2.022Z" transform="translate(-264.182 -208.366)" fill="#fff" stroke="#fff" stroke-width="1"/>
    <path id="Path_70" data-name="Path 70" d="M219.986,290.772h12.907a1.011,1.011,0,1,0,0-2.022H219.986a1.011,1.011,0,1,0,0,2.022Z" transform="translate(-197.837 -250.113)" fill="#fff" stroke="#fff" stroke-width="1"/>
    <path id="Path_71" data-name="Path 71" d="M219.986,320.793h6.235a1.011,1.011,0,1,0,0-2.022h-6.235a1.011,1.011,0,1,0,0,2.022Z" transform="translate(-197.837 -276.116)" fill="#fff" stroke="#fff" stroke-width="1"/>
    <path id="Path_72" data-name="Path 72" d="M299.239,318.77H296.58a1.011,1.011,0,1,0,0,2.022h2.658a1.011,1.011,0,1,0,0-2.022Z" transform="translate(-264.182 -276.116)" fill="#fff" stroke="#fff" stroke-width="1"/>
    <path id="Path_73" data-name="Path 73" d="M111.889,50.114a6.117,6.117,0,0,0-4.212-2.554,9.982,9.982,0,0,0,.695-6.614,1.011,1.011,0,0,0-1.089-.781V29.179a1.011,1.011,0,0,0-2.023,0V40.668a9.924,9.924,0,0,0-2.789,1.527V13.269a1.7,1.7,0,0,0-1.7-1.7H95.38V8.878h9.879v15.7a1.011,1.011,0,0,0,2.023,0V8.522a1.668,1.668,0,0,0-1.667-1.666H95.141A1.59,1.59,0,0,0,93.788,6.1H89.058V4.746a4.746,4.746,0,0,0-9.493,0V6.1H74.5a1.6,1.6,0,0,0-1.355.757H62.669A1.668,1.668,0,0,0,61,8.522V64.108a1.668,1.668,0,0,0,1.667,1.666H92.975a7.251,7.251,0,0,0,2.124,2.08,4.563,4.563,0,0,0,2.379.656,6.834,6.834,0,0,0,3.061-.822c.782-.394.782-.394,1.563,0,2.057,1.038,3.889,1.093,5.442.166a9.937,9.937,0,0,0,3.261-3.951c1.865-3.453,3.693-9.976,1.084-13.789Zm-9.749-4.645a7.734,7.734,0,0,1,4.425-3.093,7.737,7.737,0,0,1-1.138,5.069c-.322.017-.656.045-1.006.088a6.869,6.869,0,0,0-2.787.935c-.107.06-.235.132-.311.166-.076-.034-.2-.106-.311-.166l-.059-.033A7.429,7.429,0,0,1,102.14,45.469ZM81.588,4.746a2.724,2.724,0,0,1,5.447,0V6.1H81.588ZM74.927,8.121h18.43V12.33H74.927Zm-11.9,55.631V8.878H72.9v2.695H67.515a1.7,1.7,0,0,0-1.7,1.7V24.578a1.011,1.011,0,0,0,2.023,0V13.6h5.306a1.6,1.6,0,0,0,1.356.757H93.789a1.59,1.59,0,0,0,1.352-.757h5.306V44.363a9.409,9.409,0,0,0-1.411,3.313,8.149,8.149,0,0,0-.815-.143c-4.34-.542-6.454,1.1-7.464,2.578-1.633,2.386-1.529,5.833-.766,8.927H78.384V50.732a1.7,1.7,0,0,0-1.7-1.7H67.837V29.179a1.011,1.011,0,0,0-2.023,0V50.043a1.011,1.011,0,0,0,.315.734L76.676,60.783a1.011,1.011,0,0,0,.7.278H90.6a20.416,20.416,0,0,0,1.16,2.691Zm13.336-12.7V57.7l-7-6.642Zm32.665,11.888c-1.919,3.553-3.379,4.267-6.012,2.939a3.016,3.016,0,0,0-3.385,0c-2.631,1.328-4.092.614-6.011-2.939a18.351,18.351,0,0,1-1.329-3.179l-.009-.029c-.981-3.142-1.168-6.558.147-8.48a4.682,4.682,0,0,1,4.155-1.805,6.718,6.718,0,0,1,3.306.708,2.743,2.743,0,0,0,1.627.5,4.216,4.216,0,0,0,1.446-.611,5.09,5.09,0,0,1,1.711-.508c2.675-.334,4.541.243,5.548,1.715C112.009,53.873,111.018,59.253,109.025,62.942Z" transform="translate(-61.002 0)" fill="#fff" stroke="#fff" stroke-width="1"/>
  </g>
</svg>
