<svg xmlns="http://www.w3.org/2000/svg" width="238.615" height="87.639" viewBox="0 0 238.615 87.639">
  <g id="Group_205" data-name="Group 205" transform="translate(-4887.755 -606.884)">
    <g id="Group_202" data-name="Group 202" transform="translate(4984.448 616.773)">
      <g id="Group_196" data-name="Group 196" transform="translate(0 12.07)">
        <path id="Path_185" data-name="Path 185" d="M4993.517,1028.992H4987.8v17.862h-7.222v-17.862h-5.722v-6.559h18.664Z" transform="translate(-4974.853 -1022.433)" fill="#e41c26"/>
        <path id="Path_186" data-name="Path 186" d="M5168.987,1039h-2.652v7.85h-7.222v-24.421h10.013c6.733,0,10.013,3.384,10.013,8.757,0,3.1-1.255,5.233-3.488,6.454l5.2,9.21h-7.885Zm-2.652-5.652h2.791c1.641,0,2.721-.558,2.721-2.163,0-1.465-.837-2.2-2.721-2.2h-2.791Z" transform="translate(-5136.716 -1022.433)" fill="#e41c26"/>
        <path id="Path_187" data-name="Path 187" d="M5364.9,1042.947h-7.465l-1.083,3.907h-7.813l8.164-24.421h8.93l8.164,24.421h-7.815Zm-1.43-5.163-2.3-8.338-2.3,8.338Z" transform="translate(-5303.12 -1022.433)" fill="#e41c26"/>
        <path id="Path_188" data-name="Path 188" d="M5588.531,1022.433v24.421h-7.223v-24.421Z" transform="translate(-5507.591 -1022.433)" fill="#e41c26"/>
        <path id="Path_189" data-name="Path 189" d="M5702.016,1022.433v24.421h-6.454l-8.3-13.013v13.013h-7.223v-24.421h6.455l8.339,13.013v-13.013Z" transform="translate(-5594.319 -1022.433)" fill="#e41c26"/>
      </g>
      <g id="Group_197" data-name="Group 197" transform="translate(2.145 42.799)">
        <path id="Path_190" data-name="Path 190" d="M5014.551,1311.148v24.421h-7.221v-9.07h-7.606v9.07H4992.5v-24.421h7.222v8.9h7.606v-8.9Z" transform="translate(-4992.502 -1311.148)" fill="#e41c26"/>
        <path id="Path_191" data-name="Path 191" d="M5222.975,1331.662h-7.467l-1.081,3.907h-7.817l8.165-24.421h8.932l8.164,24.421h-7.815Zm-1.432-5.163-2.3-8.339-2.3,8.339Z" transform="translate(-5180.585 -1311.148)" fill="#e41c26"/>
        <path id="Path_192" data-name="Path 192" d="M5457,1327.719h-2.652v7.85h-7.222v-24.421h10.013c6.733,0,10.012,3.384,10.012,8.757,0,3.1-1.255,5.233-3.488,6.454l5.2,9.21h-7.884Zm-2.652-5.652h2.792c1.641,0,2.722-.558,2.722-2.163,0-1.466-.838-2.2-2.722-2.2h-2.792Z" transform="translate(-5391.866 -1311.148)" fill="#e41c26"/>
        <path id="Path_193" data-name="Path 193" d="M5681.088,1323.358c0,7.571-5.024,12.211-13.152,12.211h-9.28v-24.421h9.28C5676.063,1311.148,5681.088,1315.788,5681.088,1323.358Zm-7.222,0c0-3.489-2.094-5.651-5.93-5.651h-2.094v11.3h2.094C5671.772,1329.01,5673.866,1326.882,5673.866,1323.358Z" transform="translate(-5577.684 -1311.148)" fill="#e41c26"/>
      </g>
      <g id="Group_201" data-name="Group 201" transform="translate(49.697)">
        <path id="Path_194" data-name="Path 194" d="M5371.189,1606.114l2.6,5.271,5.815.845-4.209,4.1,1,5.793-5.2-2.735-5.2,2.735.994-5.793-4.207-4.1,5.816-.845Z" transform="translate(-5362.773 -1606.114)" fill="#e41c26"/>
      </g>
    </g>
    <path id="Path_197" data-name="Path 197" d="M72.415,0V3.674h11.55V174.706L43.819,194.05,3.674,174.706V3.674h11.55V0H0V177.013l43.819,21.114,43.819-21.114V0Z" transform="translate(4928.243 694.522) rotate(-90)" fill="#e41c26"/>
    <g id="Group_198" data-name="Group 198" transform="translate(4887.755 628.861)">
      <path id="Path_198" data-name="Path 198" d="M5463.822,750.028c.154-.182.313-.357.475-.53h-.95C5463.509,749.671,5463.669,749.846,5463.822,750.028Z" transform="translate(-5415.296 -730.702)" fill="#e41c26"/>
      <path id="Path_199" data-name="Path 199" d="M5439.088,750.028c.153-.182.313-.357.475-.53h-.95C5438.776,749.671,5438.935,749.846,5439.088,750.028Z" transform="translate(-5393.949 -730.702)" fill="#e41c26"/>
      <path id="Path_200" data-name="Path 200" d="M5488.558,750.028c.152-.182.313-.357.475-.53h-.95C5488.244,749.671,5488.4,749.846,5488.558,750.028Z" transform="translate(-5436.645 -730.702)" fill="#e41c26"/>
      <path id="Path_201" data-name="Path 201" d="M5414.354,750.028c.154-.182.313-.357.474-.53h-.951C5414.04,749.671,5414.2,749.846,5414.354,750.028Z" transform="translate(-5372.6 -730.702)" fill="#e41c26"/>
      <path id="Path_202" data-name="Path 202" d="M5193.931,625.6h-.409V617.37a4.041,4.041,0,0,0-4.1-3.975h0a4.042,4.042,0,0,0-4.106,3.975v-5.7a4.042,4.042,0,0,0-4.105-3.975h0a4.106,4.106,0,0,1-8.208,0h0a4.042,4.042,0,0,0-4.106,3.975v14.8h-1.723c.21.215.416.433.611.661a8.4,8.4,0,0,1,.821,1.106,9.133,9.133,0,0,1-1.142-.8q-.534-.432-1.023-.909c-.021-.02-.042-.042-.061-.062h-.7l-.062.062q-.47.457-.983.874a7.7,7.7,0,0,1,.595.831,7.885,7.885,0,0,1-.889-.6,8.019,8.019,0,0,1-.889.6,7.834,7.834,0,0,1,.594-.831q-.512-.416-.982-.874c-.022-.02-.042-.042-.062-.062h-.7c-.021.02-.039.042-.062.062-.314.3-.641.6-.984.874a7.511,7.511,0,0,1,.6.831.959.959,0,0,0-1.777,0,7.492,7.492,0,0,1,.593-.831q-.512-.416-.984-.874l-.06-.062h-.7c-.021.02-.04.042-.062.062q-.47.457-.984.874a7.448,7.448,0,0,1,.6.831,7.791,7.791,0,0,1-.889-.6,8.078,8.078,0,0,1-.89.6,7.7,7.7,0,0,1,.594-.831q-.512-.416-.984-.874c-.021-.02-.039-.042-.061-.062h-.7c-.021.02-.04.042-.061.062q-.472.457-.983.874a7.429,7.429,0,0,1,.593.831,7.967,7.967,0,0,1-.889-.6,8.059,8.059,0,0,1-.889.6,7.638,7.638,0,0,1,.6-.831q-.513-.416-.984-.874c-.021-.02-.04-.042-.061-.062h-.7c-.021.02-.04.042-.061.062-.315.3-.642.6-.983.874a7.9,7.9,0,0,1,.594.831,8.006,8.006,0,0,1-.892-.6,7.859,7.859,0,0,1-.887.6,7.761,7.761,0,0,1,.594-.831q-.511-.416-.983-.874l-.062-.062h-.7c-.021.02-.039.042-.06.062q-.472.457-.984.874a7.37,7.37,0,0,1,.594.831,8.105,8.105,0,0,1-.889-.6,7.834,7.834,0,0,1-.889.6,7.693,7.693,0,0,1,.594-.831q-.512-.416-.983-.874l-.061-.062h-.7c-.022.02-.041.042-.062.062q-.471.457-.983.874a7.634,7.634,0,0,1,.595.831,7.878,7.878,0,0,1-.889-.6,8.013,8.013,0,0,1-.889.6,7.619,7.619,0,0,1,.593-.831q-.512-.416-.984-.874l-.061-.062h-.7c-.021.02-.04.042-.059.062q-.491.476-1.026.909a8.882,8.882,0,0,1-1.142.8,8.54,8.54,0,0,1,.822-1.106c.2-.228.4-.446.61-.661h-1.723v-14.8a4.042,4.042,0,0,0-4.1-3.975h0a4.107,4.107,0,0,1-8.209,0h0a4.041,4.041,0,0,0-4.1,3.975v5.7a4.042,4.042,0,0,0-4.106-3.975h0a4.042,4.042,0,0,0-4.1,3.975V625.6h-.408a1.979,1.979,0,0,0-2.01,1.945v5.045a1.979,1.979,0,0,0,2.01,1.945h.408v8.227a4.042,4.042,0,0,0,4.1,3.975h0a4.042,4.042,0,0,0,4.106-3.975v5.7a4.041,4.041,0,0,0,4.1,3.975h0a4.107,4.107,0,0,1,8.209,0h0a4.042,4.042,0,0,0,4.1-3.975v-14.8h29.408v14.8a4.042,4.042,0,0,0,4.106,3.975h0a4.106,4.106,0,0,1,8.208,0h0a4.042,4.042,0,0,0,4.105-3.975v-5.7a4.042,4.042,0,0,0,4.106,3.975h0a4.041,4.041,0,0,0,4.1-3.975v-8.227h.409a1.978,1.978,0,0,0,2.01-1.945v-5.045A1.979,1.979,0,0,0,5193.931,625.6Zm-74.347-.862a1.439,1.439,0,1,1-1.244,0,21.355,21.355,0,0,1-.168-2.737,21.72,21.72,0,0,1,.171-2.737,1.438,1.438,0,1,1,1.239,0,22.282,22.282,0,0,1,0,5.473Zm8.208-5.473a1.439,1.439,0,1,1-1.244,0,21.628,21.628,0,0,1-.168-2.737,22,22,0,0,1,.171-2.737,1.438,1.438,0,1,1,1.239,0,22,22,0,0,1,.171,2.737A21.54,21.54,0,0,1,5127.792,619.262Zm8.21,0a1.439,1.439,0,1,1-1.244,0,21.184,21.184,0,0,1-.168-2.737,22,22,0,0,1,.171-2.737,1.438,1.438,0,1,1,1.239,0,21.81,21.81,0,0,1,.17,2.737A21.536,21.536,0,0,1,5136,619.262Zm37.617,0a1.439,1.439,0,1,1-1.242,0,21.63,21.63,0,0,1-.169-2.737,21.906,21.906,0,0,1,.172-2.737,1.438,1.438,0,1,1,1.238,0,22.09,22.09,0,0,1,.17,2.737A21.629,21.629,0,0,1,5173.62,619.262Zm8.21,0a12.866,12.866,0,0,1-.623,2.737,13.011,13.011,0,0,1-.621-2.737,22.186,22.186,0,0,1,0-5.473,13.249,13.249,0,0,1,.619-2.737,13.036,13.036,0,0,1,.62,2.737,22.092,22.092,0,0,1,.171,2.737A21.72,21.72,0,0,1,5181.83,619.262Zm8.209,5.473a1.439,1.439,0,1,1-1.243,0,21.444,21.444,0,0,1-.169-2.737,21.9,21.9,0,0,1,.171-2.737,1.438,1.438,0,1,1,1.239,0,21.629,21.629,0,0,1,.171,2.737A21.18,21.18,0,0,1,5190.039,624.736Z" transform="translate(-5112.438 -607.695)" fill="#e41c26"/>
      <path id="Path_203" data-name="Path 203" d="M5340.149,750.028c.153-.182.313-.357.476-.53h-.951C5339.837,749.671,5340,749.846,5340.149,750.028Z" transform="translate(-5308.559 -730.702)" fill="#e41c26"/>
      <path id="Path_204" data-name="Path 204" d="M5389.62,750.028c.152-.182.31-.357.474-.53h-.95C5389.305,749.671,5389.465,749.846,5389.62,750.028Z" transform="translate(-5351.254 -730.702)" fill="#e41c26"/>
      <path id="Path_205" data-name="Path 205" d="M5364.884,750.028c.154-.182.313-.357.476-.53h-.951C5364.571,749.671,5364.731,749.846,5364.884,750.028Z" transform="translate(-5329.905 -730.702)" fill="#e41c26"/>
    </g>
  </g>
</svg>
