<svg xmlns="http://www.w3.org/2000/svg" width="90.685" height="98.593" viewBox="0 0 90.685 98.593">
  <g id="Group_22" data-name="Group 22" transform="translate(-422.845 -2506.908)">
    <path id="tshirt" d="M110.8,39.456,97.5,12.63a3.471,3.471,0,0,0-1.242-1.384L80.306,1.063A5.876,5.876,0,0,0,74.086,1c-5.075,3.14-10.512,3.045-16.62-.29a5.856,5.856,0,0,0-5.927.2L48.786,2.646l-.01.006-13.611,8.59a3.47,3.47,0,0,0-1.257,1.394L20.614,39.456a2.414,2.414,0,0,0,.964,3.165l14.511,8.292V96.264a2.332,2.332,0,0,0,2.329,2.329H92.994a2.332,2.332,0,0,0,2.329-2.329V80.717a1.456,1.456,0,1,0-2.913,0V95.68H39V32.766a1.456,1.456,0,1,0-2.913,0V47.558L23.433,40.327l13.085-26.4a.556.556,0,0,1,.2-.224L48.551,6.238a17.788,17.788,0,0,0,3.458,6.615,1.456,1.456,0,0,0,2.241-1.86,14.856,14.856,0,0,1-3.1-6.393l1.946-1.228c.061-.038.123-.074.185-.107a12.471,12.471,0,0,0,3.643,7.208,12.555,12.555,0,0,0,17.519.05,12.48,12.48,0,0,0,3.7-7.3,2.966,2.966,0,0,1,.6.291l1.545.986A14.953,14.953,0,0,1,65.706,16.389a14.851,14.851,0,0,1-7.377-1.965A1.456,1.456,0,1,0,56.88,16.95,17.769,17.769,0,0,0,65.706,19.3,17.888,17.888,0,0,0,82.88,6.161L94.692,13.7a.56.56,0,0,1,.2.223l13.087,26.4L95.323,47.558V32.765a1.456,1.456,0,0,0-2.913,0V74.892a1.456,1.456,0,1,0,2.913,0V50.913l14.511-8.292a2.414,2.414,0,0,0,.964-3.165ZM65.706,11.146a9.588,9.588,0,0,1-6.747-2.754,9.581,9.581,0,0,1-2.715-5.034c6.733,3.62,13.064,3.769,18.831.443a9.6,9.6,0,0,1-9.369,7.346Z" transform="translate(402.482 2506.908)" fill="#fff"/>
  </g>
</svg>
