<svg xmlns="http://www.w3.org/2000/svg" width="1492.5" height="610.072" viewBox="0 0 1492.5 610.072">
  <g id="Group_90" data-name="Group 90" transform="translate(29.5 -4145.428)">
    <g id="Group_87" data-name="Group 87" transform="translate(-71.07 3812.188)">
      <g id="Group_38" data-name="Group 38" transform="translate(235.07 333.24)">
        <line id="Line_1" data-name="Line 1" x1="9.88" y2="9.898" fill="none"/>
        <path id="Path_102" data-name="Path 102" d="M246.185,333.24,235.07,344.373V341.92l8.645-8.68Z" transform="translate(-235.07 -333.24)" fill="#dbdbdb"/>
      </g>
      <g id="Group_39" data-name="Group 39" transform="translate(235.07 333.24)">
        <line id="Line_2" data-name="Line 2" x1="48.932" y2="49.036" fill="none"/>
        <path id="Path_103" data-name="Path 103" d="M285.22,333.24l-50.15,50.271v-2.47l47.679-47.8Z" transform="translate(-235.07 -333.24)" fill="#dbdbdb"/>
      </g>
      <g id="Group_40" data-name="Group 40" transform="translate(235.07 333.24)">
        <line id="Line_3" data-name="Line 3" x1="87.966" y2="88.175" fill="none"/>
        <path id="Path_104" data-name="Path 104" d="M324.271,333.24l-89.2,89.41V420.2l86.748-86.957Z" transform="translate(-235.07 -333.24)" fill="#dbdbdb"/>
      </g>
      <g id="Group_41" data-name="Group 41" transform="translate(235.07 333.24)">
        <line id="Line_4" data-name="Line 4" x1="127.018" y2="127.313" fill="none"/>
        <path id="Path_105" data-name="Path 105" d="M363.305,333.24,235.07,461.788v-2.47L360.853,333.24Z" transform="translate(-235.07 -333.24)" fill="#dbdbdb"/>
      </g>
      <g id="Group_42" data-name="Group 42" transform="translate(235.07 333.24)">
        <line id="Line_5" data-name="Line 5" x1="166.052" y2="166.452" fill="none"/>
        <path id="Path_106" data-name="Path 106" d="M402.357,333.24,235.07,500.927v-2.47L399.887,333.24Z" transform="translate(-235.07 -333.24)" fill="#dbdbdb"/>
      </g>
      <g id="Group_43" data-name="Group 43" transform="translate(235.07 333.24)">
        <line id="Line_6" data-name="Line 6" x1="205.103" y2="205.59" fill="none"/>
        <path id="Path_107" data-name="Path 107" d="M441.391,333.24,235.07,540.066V537.6L438.938,333.24Z" transform="translate(-235.07 -333.24)" fill="#dbdbdb"/>
      </g>
      <g id="Group_44" data-name="Group 44" transform="translate(235.07 333.24)">
        <line id="Line_7" data-name="Line 7" x1="244.138" y2="244.729" fill="none"/>
        <path id="Path_108" data-name="Path 108" d="M480.443,333.24,235.07,579.2v-2.488l242.9-243.477Z" transform="translate(-235.07 -333.24)" fill="#dbdbdb"/>
      </g>
      <g id="Group_45" data-name="Group 45" transform="translate(235.07 333.24)">
        <line id="Line_8" data-name="Line 8" x1="283.172" y2="283.85" fill="none"/>
        <path id="Path_109" data-name="Path 109" d="M519.477,333.24,235.07,618.343v-2.47L517.024,333.24Z" transform="translate(-235.07 -333.24)" fill="#dbdbdb"/>
      </g>
      <g id="Group_46" data-name="Group 46" transform="translate(235.07 333.24)">
        <line id="Line_9" data-name="Line 9" x1="322.223" y2="323.006" fill="none"/>
        <path id="Path_110" data-name="Path 110" d="M558.511,333.24,235.07,657.464v-2.453L556.058,333.24Z" transform="translate(-235.07 -333.24)" fill="#dbdbdb"/>
      </g>
      <g id="Group_47" data-name="Group 47" transform="translate(235.07 333.24)">
        <line id="Line_10" data-name="Line 10" x1="361.258" y2="362.127" fill="none"/>
        <path id="Path_111" data-name="Path 111" d="M597.563,333.24,235.07,696.62v-2.47L595.11,333.24Z" transform="translate(-235.07 -333.24)" fill="#dbdbdb"/>
      </g>
      <g id="Group_48" data-name="Group 48" transform="translate(235.07 333.24)">
        <line id="Line_11" data-name="Line 11" x1="400.309" y2="401.266" fill="none"/>
        <path id="Path_112" data-name="Path 112" d="M636.614,333.24,235.07,735.741v-2.453L634.144,333.24Z" transform="translate(-235.07 -333.24)" fill="#dbdbdb"/>
      </g>
      <g id="Group_49" data-name="Group 49" transform="translate(235.07 333.24)">
        <line id="Line_12" data-name="Line 12" x1="439.361" y2="440.422" fill="none"/>
        <path id="Path_113" data-name="Path 113" d="M675.648,333.24,235.07,774.879v-2.47L673.178,333.24Z" transform="translate(-235.07 -333.24)" fill="#dbdbdb"/>
      </g>
      <g id="Group_50" data-name="Group 50" transform="translate(235.07 333.24)">
        <line id="Line_13" data-name="Line 13" x1="478.395" y2="479.543" fill="none"/>
        <path id="Path_114" data-name="Path 114" d="M714.7,333.24,235.07,814.018v-2.453L712.247,333.24Z" transform="translate(-235.07 -333.24)" fill="#dbdbdb"/>
      </g>
      <g id="Group_51" data-name="Group 51" transform="translate(235.07 333.24)">
        <line id="Line_14" data-name="Line 14" x1="517.446" y2="518.682" fill="none"/>
        <path id="Path_115" data-name="Path 115" d="M753.734,333.24,235.07,853.157v-2.47L751.281,333.24Z" transform="translate(-235.07 -333.24)" fill="#dbdbdb"/>
      </g>
      <g id="Group_52" data-name="Group 52" transform="translate(235.07 333.24)">
        <line id="Line_15" data-name="Line 15" x1="556.481" y2="557.82" fill="none"/>
        <path id="Path_116" data-name="Path 116" d="M792.786,333.24,235.07,892.3v-2.47L790.316,333.24Z" transform="translate(-235.07 -333.24)" fill="#dbdbdb"/>
      </g>
      <g id="Group_53" data-name="Group 53" transform="translate(235.07 333.24)">
        <line id="Line_16" data-name="Line 16" x1="595.532" y2="596.959" fill="none"/>
        <path id="Path_117" data-name="Path 117" d="M831.82,333.24,235.07,931.434v-2.47l594.3-595.724Z" transform="translate(-235.07 -333.24)" fill="#dbdbdb"/>
      </g>
      <g id="Group_54" data-name="Group 54" transform="translate(263.963 333.24)">
        <line id="Line_17" data-name="Line 17" x1="604.421" y2="605.882" transform="translate(1.252)" fill="none"/>
        <path id="Path_118" data-name="Path 118" d="M858.589,333.24,254.15,939.122h-2.47L856.118,333.24Z" transform="translate(-251.68 -333.24)" fill="#dbdbdb"/>
      </g>
      <g id="Group_55" data-name="Group 55" transform="translate(303.032 333.24)">
        <line id="Line_18" data-name="Line 18" x1="604.421" y2="605.882" transform="translate(1.218)" fill="none"/>
        <path id="Path_119" data-name="Path 119" d="M881.014,333.24,276.575,939.122H274.14L878.561,333.24Z" transform="translate(-274.14 -333.24)" fill="#dbdbdb"/>
      </g>
      <g id="Group_56" data-name="Group 56" transform="translate(342.066 333.24)">
        <line id="Line_19" data-name="Line 19" x1="604.421" y2="605.882" transform="translate(1.235)" fill="none"/>
        <path id="Path_120" data-name="Path 120" d="M903.454,333.24,299.033,939.122H296.58L901,333.24Z" transform="translate(-296.58 -333.24)" fill="#dbdbdb"/>
      </g>
      <g id="Group_57" data-name="Group 57" transform="translate(381.1 333.24)">
        <line id="Line_20" data-name="Line 20" x1="604.421" y2="605.882" transform="translate(1.235)" fill="none"/>
        <path id="Path_121" data-name="Path 121" d="M925.911,333.24,321.49,939.122h-2.47L923.458,333.24Z" transform="translate(-319.02 -333.24)" fill="#dbdbdb"/>
      </g>
      <g id="Group_58" data-name="Group 58" transform="translate(420.152 333.24)">
        <line id="Line_21" data-name="Line 21" x1="604.421" y2="605.882" transform="translate(1.235)" fill="none"/>
        <path id="Path_122" data-name="Path 122" d="M948.361,333.24,343.923,939.122H341.47L945.891,333.24Z" transform="translate(-341.47 -333.24)" fill="#dbdbdb"/>
      </g>
      <g id="Group_59" data-name="Group 59" transform="translate(459.186 333.24)">
        <line id="Line_22" data-name="Line 22" x1="604.404" y2="605.882" transform="translate(1.252)" fill="none"/>
        <path id="Path_123" data-name="Path 123" d="M970.8,333.24,366.38,939.122h-2.47L968.349,333.24Z" transform="translate(-363.91 -333.24)" fill="#dbdbdb"/>
      </g>
      <g id="Group_60" data-name="Group 60" transform="translate(498.238 333.24)">
        <line id="Line_23" data-name="Line 23" x1="604.438" y2="605.882" transform="translate(1.218)" fill="none"/>
        <path id="Path_124" data-name="Path 124" d="M993.234,333.24,388.813,939.122H386.36L990.781,333.24Z" transform="translate(-386.36 -333.24)" fill="#dbdbdb"/>
      </g>
      <g id="Group_61" data-name="Group 61" transform="translate(537.272 333.24)">
        <line id="Line_24" data-name="Line 24" x1="604.421" y2="605.882" transform="translate(1.235)" fill="none"/>
        <path id="Path_125" data-name="Path 125" d="M1015.691,333.24,411.253,939.122H408.8L1013.239,333.24Z" transform="translate(-408.8 -333.24)" fill="#dbdbdb"/>
      </g>
      <g id="Group_62" data-name="Group 62" transform="translate(576.323 333.24)">
        <line id="Line_25" data-name="Line 25" x1="604.421" y2="605.882" transform="translate(1.235)" fill="none"/>
        <path id="Path_126" data-name="Path 126" d="M1038.124,333.24,433.7,939.122H431.25L1035.671,333.24Z" transform="translate(-431.25 -333.24)" fill="#dbdbdb"/>
      </g>
      <g id="Group_63" data-name="Group 63" transform="translate(615.375 333.24)">
        <line id="Line_26" data-name="Line 26" x1="604.438" y2="605.882" transform="translate(1.218)" fill="none"/>
        <path id="Path_127" data-name="Path 127" d="M1060.574,333.24,456.153,939.122H453.7L1058.121,333.24Z" transform="translate(-453.7 -333.24)" fill="#dbdbdb"/>
      </g>
      <g id="Group_64" data-name="Group 64" transform="translate(654.409 333.24)">
        <line id="Line_27" data-name="Line 27" x1="604.421" y2="605.882" transform="translate(1.235)" fill="none"/>
        <path id="Path_128" data-name="Path 128" d="M1083.014,333.24,478.593,939.122H476.14L1080.561,333.24Z" transform="translate(-476.14 -333.24)" fill="#dbdbdb"/>
      </g>
      <g id="Group_65" data-name="Group 65" transform="translate(693.461 333.24)">
        <line id="Line_28" data-name="Line 28" x1="604.421" y2="605.882" transform="translate(1.218)" fill="none"/>
        <path id="Path_129" data-name="Path 129" d="M1105.464,333.24,501.043,939.122H498.59L1103.011,333.24Z" transform="translate(-498.59 -333.24)" fill="#dbdbdb"/>
      </g>
      <g id="Group_66" data-name="Group 66" transform="translate(732.495 333.24)">
        <line id="Line_29" data-name="Line 29" x1="604.404" y2="605.882" transform="translate(1.235)" fill="none"/>
        <path id="Path_130" data-name="Path 130" d="M1127.9,333.24,523.483,939.122H521.03L1125.451,333.24Z" transform="translate(-521.03 -333.24)" fill="#dbdbdb"/>
      </g>
      <g id="Group_67" data-name="Group 67" transform="translate(771.529 333.24)">
        <line id="Line_30" data-name="Line 30" x1="604.421" y2="605.882" transform="translate(1.235)" fill="none"/>
        <path id="Path_131" data-name="Path 131" d="M1150.361,333.24,545.94,939.122h-2.47L1147.908,333.24Z" transform="translate(-543.47 -333.24)" fill="#dbdbdb"/>
      </g>
      <g id="Group_68" data-name="Group 68" transform="translate(810.581 333.24)">
        <line id="Line_31" data-name="Line 31" x1="604.421" y2="605.882" transform="translate(1.235)" fill="none"/>
        <path id="Path_132" data-name="Path 132" d="M1172.794,333.24,568.373,939.122H565.92L1170.341,333.24Z" transform="translate(-565.92 -333.24)" fill="#dbdbdb"/>
      </g>
      <g id="Group_69" data-name="Group 69" transform="translate(849.615 333.24)">
        <line id="Line_32" data-name="Line 32" x1="604.421" y2="605.882" transform="translate(1.235)" fill="none"/>
        <path id="Path_133" data-name="Path 133" d="M1195.251,333.24,590.83,939.122h-2.47L1192.8,333.24Z" transform="translate(-588.36 -333.24)" fill="#dbdbdb"/>
      </g>
      <g id="Group_70" data-name="Group 70" transform="translate(888.667 333.24)">
        <line id="Line_33" data-name="Line 33" x1="604.438" y2="605.882" transform="translate(1.218)" fill="none"/>
        <path id="Path_134" data-name="Path 134" d="M1217.684,333.24,613.263,939.122H610.81L1215.231,333.24Z" transform="translate(-610.81 -333.24)" fill="#dbdbdb"/>
      </g>
      <g id="Group_71" data-name="Group 71" transform="translate(927.701 333.24)">
        <line id="Line_34" data-name="Line 34" x1="604.421" y2="605.882" transform="translate(1.235)" fill="none"/>
        <path id="Path_135" data-name="Path 135" d="M1239.619,333.24v.522l-603.9,605.36h-2.47L1237.671,333.24Z" transform="translate(-633.25 -333.24)" fill="#dbdbdb"/>
      </g>
      <g id="Group_72" data-name="Group 72" transform="translate(966.752 370.448)">
        <line id="Line_35" data-name="Line 35" x1="566.1" y2="567.457" transform="translate(1.218 1.218)" fill="none"/>
        <path id="Path_136" data-name="Path 136" d="M1223.018,354.63v2.435L658.153,923.3H655.7Z" transform="translate(-655.7 -354.63)" fill="#dbdbdb"/>
      </g>
      <g id="Group_73" data-name="Group 73" transform="translate(1005.786 409.569)">
        <line id="Line_36" data-name="Line 36" x1="527.048" y2="528.318" transform="translate(1.235 1.235)" fill="none"/>
        <path id="Path_137" data-name="Path 137" d="M1206.424,377.12v2.453l-525.831,527.1H678.14Z" transform="translate(-678.14 -377.12)" fill="#dbdbdb"/>
      </g>
      <g id="Group_74" data-name="Group 74" transform="translate(1044.838 448.707)">
        <line id="Line_37" data-name="Line 37" x1="488.014" y2="489.197" transform="translate(1.218 1.218)" fill="none"/>
        <path id="Path_138" data-name="Path 138" d="M1189.822,399.62v2.47L703.043,890.035H700.59Z" transform="translate(-700.59 -399.62)" fill="#dbdbdb"/>
      </g>
      <g id="Group_75" data-name="Group 75" transform="translate(1083.872 487.829)">
        <line id="Line_38" data-name="Line 38" x1="448.963" y2="450.041" transform="translate(1.235 1.252)" fill="none"/>
        <path id="Path_139" data-name="Path 139" d="M1173.228,422.11v2.47L725.483,873.4H723.03Z" transform="translate(-723.03 -422.11)" fill="#dbdbdb"/>
      </g>
      <g id="Group_76" data-name="Group 76" transform="translate(1122.906 526.967)">
        <line id="Line_39" data-name="Line 39" x1="409.929" y2="410.92" transform="translate(1.235 1.235)" fill="none"/>
        <path id="Path_140" data-name="Path 140" d="M1156.634,444.61V447.1L747.94,856.765h-2.47Z" transform="translate(-745.47 -444.61)" fill="#dbdbdb"/>
      </g>
      <g id="Group_77" data-name="Group 77" transform="translate(1161.975 566.123)">
        <line id="Line_40" data-name="Line 40" x1="370.894" y2="371.781" transform="translate(1.2 1.218)" fill="none"/>
        <path id="Path_141" data-name="Path 141" d="M1140.025,467.12v2.453L770.383,840.119H767.93Z" transform="translate(-767.93 -467.12)" fill="#dbdbdb"/>
      </g>
      <g id="Group_78" data-name="Group 78" transform="translate(1201.01 605.262)">
        <line id="Line_41" data-name="Line 41" x1="331.825" y2="332.626" transform="translate(1.235 1.235)" fill="none"/>
        <path id="Path_142" data-name="Path 142" d="M1123.43,489.62v2.453L792.823,823.481H790.37Z" transform="translate(-790.37 -489.62)" fill="#dbdbdb"/>
      </g>
      <g id="Group_79" data-name="Group 79" transform="translate(1240.044 644.4)">
        <line id="Line_42" data-name="Line 42" x1="292.791" y2="293.504" transform="translate(1.235 1.218)" fill="none"/>
        <path id="Path_143" data-name="Path 143" d="M1106.836,512.12v2.453L815.28,806.842h-2.47Z" transform="translate(-812.81 -512.12)" fill="#dbdbdb"/>
      </g>
      <g id="Group_80" data-name="Group 80" transform="translate(1279.095 683.521)">
        <line id="Line_43" data-name="Line 43" x1="253.757" y2="254.366" transform="translate(1.218 1.235)" fill="none"/>
        <path id="Path_144" data-name="Path 144" d="M1090.235,534.61v2.47L837.713,790.211H835.26Z" transform="translate(-835.26 -534.61)" fill="#dbdbdb"/>
      </g>
      <g id="Group_81" data-name="Group 81" transform="translate(1318.13 722.66)">
        <line id="Line_44" data-name="Line 44" x1="214.705" y2="215.227" transform="translate(1.235 1.235)" fill="none"/>
        <path id="Path_145" data-name="Path 145" d="M1073.64,557.11v2.47L860.17,773.572H857.7Z" transform="translate(-857.7 -557.11)" fill="#dbdbdb"/>
      </g>
      <g id="Group_82" data-name="Group 82" transform="translate(1357.181 761.816)">
        <line id="Line_45" data-name="Line 45" x1="175.671" y2="176.089" transform="translate(1.218 1.218)" fill="none"/>
        <path id="Path_146" data-name="Path 146" d="M1057.039,579.62v2.453L882.6,756.926H880.15Z" transform="translate(-880.15 -579.62)" fill="#dbdbdb"/>
      </g>
      <g id="Group_83" data-name="Group 83" transform="translate(1396.215 800.937)">
        <line id="Line_46" data-name="Line 46" x1="136.62" y2="136.95" transform="translate(1.235 1.235)" fill="none"/>
        <path id="Path_147" data-name="Path 147" d="M1040.445,602.11v2.453L905.043,740.3H902.59Z" transform="translate(-902.59 -602.11)" fill="#dbdbdb"/>
      </g>
      <g id="Group_84" data-name="Group 84" transform="translate(1435.267 840.076)">
        <line id="Line_47" data-name="Line 47" x1="97.585" y2="97.812" transform="translate(1.218 1.235)" fill="none"/>
        <path id="Path_148" data-name="Path 148" d="M1023.843,624.61v2.453l-96.35,96.594H925.04Z" transform="translate(-925.04 -624.61)" fill="#dbdbdb"/>
      </g>
      <g id="Group_85" data-name="Group 85" transform="translate(1474.301 879.214)">
        <line id="Line_48" data-name="Line 48" x1="58.534" y2="58.673" transform="translate(1.235 1.235)" fill="none"/>
        <path id="Path_149" data-name="Path 149" d="M1007.249,647.11v2.453l-57.316,57.455H947.48Z" transform="translate(-947.48 -647.11)" fill="#dbdbdb"/>
      </g>
      <g id="Group_86" data-name="Group 86" transform="translate(1513.335 918.335)">
        <line id="Line_49" data-name="Line 49" x1="19.5" y2="19.534" transform="translate(1.235 1.252)" fill="none"/>
        <path id="Path_150" data-name="Path 150" d="M990.655,669.6v2.488l-18.265,18.3h-2.47Z" transform="translate(-969.92 -669.6)" fill="#dbdbdb"/>
      </g>
    </g>
    <text id="VIDEO" transform="translate(104.5 4520.5) rotate(-90)" fill="none" stroke="#5e5e5e" stroke-width="1" font-size="123" font-family="SegoeUI-Bold, Segoe UI" font-weight="700" letter-spacing="0.195em"><tspan x="-233.191" y="0">VIDEO</tspan></text>
  </g>
</svg>
