<svg id="Group_103" data-name="Group 103" xmlns="http://www.w3.org/2000/svg" width="109.766" height="67.276" viewBox="0 0 109.766 67.276">
  <path id="Path_154" data-name="Path 154" d="M28,20.082v3.541a7.082,7.082,0,0,0,14.163,0V20.082a7.082,7.082,0,0,0-14.163,0Zm10.623,0v3.541a3.541,3.541,0,0,1-7.082,0V20.082a3.541,3.541,0,0,1,7.082,0Z" transform="translate(19.802 8.245)" fill="#fff"/>
  <path id="Path_155" data-name="Path 155" d="M54.1,63.653,57.772,44.71,64.146,28.6a9.246,9.246,0,0,0,.708-3.718V12.311a5.311,5.311,0,0,0-10.623,0V22.58L47.858,38.868H36.173L29.623,22.58V12.311a5.311,5.311,0,0,0-10.623,0v12.57a9.246,9.246,0,0,0,.708,3.718L26.082,44.71l3.883,18.944ZM32.809,60.113,29.623,43.648,23.072,27.183a4.9,4.9,0,0,1-.531-2.3V12.311a1.77,1.77,0,0,1,3.541,0V23.288L33.34,41.346a1.7,1.7,0,0,0,1.593,1.062H49.1a1.548,1.548,0,0,0,1.593-1.062l7.259-18.058V12.311a1.77,1.77,0,0,1,3.541,0v12.57a6.248,6.248,0,0,1-.531,2.479L54.409,43.648,51.222,60.113Z" transform="translate(12.868 3.623)" fill="#fff"/>
  <path id="Path_156" data-name="Path 156" d="M46.854,18.7h17.7a1.673,1.673,0,0,0,1.77-1.77,1.673,1.673,0,0,0-1.77-1.77h-17.7a1.673,1.673,0,0,0-1.77,1.77A1.774,1.774,0,0,0,46.854,18.7Zm60.372,8.852V18.7H109a1.673,1.673,0,0,0,1.77-1.77,1.673,1.673,0,0,0-1.77-1.77h-1.77V6.311a1.673,1.673,0,0,0-1.77-1.77h-5.311V2.77A1.673,1.673,0,0,0,98.373,1H91.292a1.673,1.673,0,0,0-1.77,1.77V15.163H82.44a1.673,1.673,0,0,0-1.77,1.77,1.673,1.673,0,0,0,1.77,1.77h7.082V31.1a1.673,1.673,0,0,0,1.77,1.77h7.082a1.673,1.673,0,0,0,1.77-1.77v-1.77h5.311A1.673,1.673,0,0,0,107.226,27.556Zm-3.541-1.77h-3.541v-9.56a1.77,1.77,0,0,0-3.541,0v13.1H93.062V4.541H96.6v5.488a1.77,1.77,0,0,0,3.541,0V8.082h3.541ZM29.15,15.163h-6.9V2.77A1.673,1.673,0,0,0,20.475,1H13.393a1.673,1.673,0,0,0-1.77,1.77v1.77H6.311a1.673,1.673,0,0,0-1.77,1.77v8.852H2.77A1.673,1.673,0,0,0,1,16.934,1.673,1.673,0,0,0,2.77,18.7h1.77v8.852a1.673,1.673,0,0,0,1.77,1.77h5.311V31.1a1.673,1.673,0,0,0,1.77,1.77h7.082a1.673,1.673,0,0,0,1.77-1.77V18.7h6.9a1.673,1.673,0,0,0,1.77-1.77A1.774,1.774,0,0,0,29.15,15.163ZM18.7,29.327H15.163V24.015a1.673,1.673,0,0,0-1.77-1.77,1.673,1.673,0,0,0-1.77,1.77v1.77H8.082V8.082h3.541v8.852a1.673,1.673,0,0,0,1.77,1.77,1.673,1.673,0,0,0,1.77-1.77V4.541H18.7Z" transform="translate(-1 -1)" fill="#fff"/>
</svg>
