<svg xmlns="http://www.w3.org/2000/svg" width="155.867" height="101.827" viewBox="0 0 155.867 101.827">
  <g id="Group_36" data-name="Group 36" transform="translate(-785.327 -3553.123)">
    <path id="Path_100" data-name="Path 100" d="M138.8-116.405a32.783,32.783,0,0,1,19.957,6.793c5.664,4.451,10.922,13.754,13.08,24.137s.674,23.869-2.023,30.205-6.1,14.314-21.176,23.33S114.511-23.1,114.207-23.1c-.3-.788-2.591-8.678,1.826-14.885,1.065.315,28.781.658,27.612-25.281-1.826.788-10.279,2.158-17.291,0a24.447,24.447,0,0,1-14.314-11.647c-2.206-4.41-3.845-8.866-3.319-15.352s3.279-13.627,8.713-18.36S128.467-116.381,138.8-116.405Z" transform="matrix(0.998, -0.07, 0.07, 0.998, 687.209, 3683.439)" fill="none" stroke="#e9e9e9" stroke-width="4"/>
    <path id="Path_101" data-name="Path 101" d="M138.8-116.405a32.783,32.783,0,0,1,19.957,6.793c5.664,4.451,10.922,13.754,13.08,24.137s.674,23.869-2.023,30.205-6.1,14.314-21.176,23.33S114.511-23.1,114.207-23.1c-.3-.788-2.591-8.678,1.826-14.885,1.065.315,28.781.658,27.612-25.281-1.826.788-10.279,2.158-17.291,0a24.447,24.447,0,0,1-14.314-11.647c-2.206-4.41-3.845-8.866-3.319-15.352s3.279-13.627,8.713-18.36S128.467-116.381,138.8-116.405Z" transform="matrix(0.998, -0.07, 0.07, 0.998, 768.209, 3683.439)" fill="none" stroke="#e9e9e9" stroke-width="4"/>
  </g>
</svg>
