<svg xmlns="http://www.w3.org/2000/svg" width="85.134" height="98.231" viewBox="0 0 85.134 98.231">
  <path id="hoodie" d="M122.011,26.676,116.5,25.018A11.478,11.478,0,0,0,105.3,16H75.832a11.478,11.478,0,0,0-11.2,9.018l-5.514,1.658A14.714,14.714,0,0,0,48,40.961v61.81a4.9,4.9,0,0,0,1.637,3.657v6.166a1.637,1.637,0,0,0,1.637,1.637H61.1a1.637,1.637,0,0,0,1.637-1.637v-6.166a4.9,4.9,0,0,0,1.635-3.549,7.913,7.913,0,0,0,3.277,1.4v5.038a1.637,1.637,0,0,0,1.637,1.637H111.85a1.637,1.637,0,0,0,1.637-1.637v-5.038a7.913,7.913,0,0,0,3.277-1.4,4.9,4.9,0,0,0,1.635,3.549v6.166a1.637,1.637,0,0,0,1.637,1.637h9.823a1.637,1.637,0,0,0,1.637-1.637v-6.166a4.9,4.9,0,0,0,1.637-3.657V40.961A14.714,14.714,0,0,0,122.011,26.676ZM106.23,19.327a8.2,8.2,0,0,1,7.214,7.285l-18.1,12.067Zm-23.914,6.5h16.5l-8.252,14.67Zm18.345-3.274H80.473l-1.842-3.274H102.5ZM74.9,19.327,85.791,38.68,67.69,26.613A8.2,8.2,0,0,1,74.9,19.327ZM59.46,110.957H52.912v-3.274H59.46Zm50.753-3.274H70.921v-3.274h39.292Zm1.87-6.549H69.051a4.684,4.684,0,0,1-4.679-4.679V52.018a1.637,1.637,0,0,0-3.274,0v50.753a1.639,1.639,0,0,1-1.637,1.637H52.912a1.639,1.639,0,0,1-1.637-1.637V40.961a11.444,11.444,0,0,1,8.681-11.118l.074-.02,4.657-1.4a1.634,1.634,0,0,0,.415.4l20.554,13.7v22.59a1.637,1.637,0,0,0,3.274,0V44.708l.729.486a1.637,1.637,0,0,0,1.816,0l.729-.486V65.116a1.637,1.637,0,0,0,3.274,0V42.526l20.554-13.7a1.634,1.634,0,0,0,.415-.4l4.657,1.4.074.02a11.444,11.444,0,0,1,8.681,11.118v61.81a1.639,1.639,0,0,1-1.637,1.637h-6.549a1.639,1.639,0,0,1-1.637-1.637V52.018a1.637,1.637,0,1,0-3.274,0V96.455A4.684,4.684,0,0,1,112.083,101.134Zm16.139,9.823h-6.549v-3.274h6.549Z" transform="translate(-48 -16)" fill="#fff"/>
</svg>
