<svg xmlns="http://www.w3.org/2000/svg" width="217.146" height="79.753" viewBox="0 0 217.146 79.753">
  <g id="Group_204" data-name="Group 204" transform="translate(-4887.755 -606.883)">
    <g id="Group_202" data-name="Group 202" transform="translate(-7.017 -8.548)">
      <g id="Group_196" data-name="Group 196" transform="translate(4982.764 635.415)">
        <path id="Path_185" data-name="Path 185" d="M4991.838,1028.4h-5.206v16.255h-6.572V1028.4h-5.207v-5.969h16.985Z" transform="translate(-4974.853 -1022.433)" fill="#fff"/>
        <path id="Path_186" data-name="Path 186" d="M5168.1,1037.513h-2.413v7.143h-6.572v-22.224h9.112c6.127,0,9.112,3.08,9.112,7.969a6.179,6.179,0,0,1-3.174,5.873l4.73,8.381h-7.175Zm-2.413-5.143h2.54c1.493,0,2.477-.508,2.477-1.968,0-1.334-.762-2-2.477-2h-2.54Z" transform="translate(-5138.731 -1022.433)" fill="#fff"/>
        <path id="Path_187" data-name="Path 187" d="M5363.431,1041.1h-6.794l-.985,3.556h-7.111l7.43-22.224h8.126l7.43,22.224h-7.112Zm-1.3-4.7-2.1-7.588-2.1,7.588Z" transform="translate(-5307.206 -1022.433)" fill="#fff"/>
        <path id="Path_188" data-name="Path 188" d="M5587.881,1022.433v22.224h-6.573v-22.224Z" transform="translate(-5514.224 -1022.433)" fill="#fff"/>
        <path id="Path_189" data-name="Path 189" d="M5700.038,1022.433v22.224h-5.873l-7.557-11.842v11.842h-6.572v-22.224h5.874l7.588,11.842v-11.842Z" transform="translate(-5602.032 -1022.433)" fill="#fff"/>
      </g>
      <g id="Group_197" data-name="Group 197" transform="translate(4984.716 663.379)">
        <path id="Path_190" data-name="Path 190" d="M5012.567,1311.148v22.224H5006v-8.254h-6.921v8.254H4992.5v-22.224h6.572v8.1H5006v-8.1Z" transform="translate(-4992.502 -1311.148)" fill="#fff"/>
        <path id="Path_191" data-name="Path 191" d="M5221.5,1329.816h-6.795l-.983,3.556h-7.113l7.43-22.224h8.128l7.429,22.224h-7.111Zm-1.3-4.7-2.095-7.588-2.1,7.588Z" transform="translate(-5182.926 -1311.148)" fill="#fff"/>
        <path id="Path_192" data-name="Path 192" d="M5456.112,1326.228H5453.7v7.143h-6.572v-22.224h9.112c6.127,0,9.111,3.08,9.111,7.969a6.178,6.178,0,0,1-3.174,5.873l4.73,8.381h-7.175Zm-2.414-5.143h2.541c1.493,0,2.477-.508,2.477-1.968,0-1.334-.762-2-2.477-2H5453.7Z" transform="translate(-5396.838 -1311.148)" fill="#fff"/>
        <path id="Path_193" data-name="Path 193" d="M5679.07,1322.26c0,6.89-4.572,11.112-11.969,11.112h-8.445v-22.224h8.445C5674.5,1311.148,5679.07,1315.371,5679.07,1322.26Zm-6.572,0c0-3.175-1.9-5.143-5.4-5.143h-1.9V1327.4h1.9C5670.593,1327.4,5672.5,1325.467,5672.5,1322.26Z" transform="translate(-5584.969 -1311.148)" fill="#fff"/>
      </g>
      <g id="Group_201" data-name="Group 201" transform="translate(5027.99 624.431)">
        <path id="Path_194" data-name="Path 194" d="M5370.432,1606.114l2.368,4.8,5.292.769-3.83,3.734.906,5.272-4.736-2.489-4.735,2.489.9-5.272-3.829-3.734,5.293-.769Z" transform="translate(-5362.773 -1606.114)" fill="#fff"/>
      </g>
    </g>
    <path id="Path_197" data-name="Path 197" d="M4931.773,649.53v3.343h10.511V808.516l-36.534,17.6-36.533-17.6V652.873h10.51V649.53h-13.854V810.616l39.876,19.214,39.877-19.214V649.53Z" transform="translate(4275.07 5552.51) rotate(-90)" fill="#fff"/>
    <g id="Group_198" data-name="Group 198" transform="translate(4887.755 626.883)">
      <path id="Path_198" data-name="Path 198" d="M5463.779,749.98c.14-.165.285-.325.432-.482h-.865C5463.494,749.655,5463.64,749.815,5463.779,749.98Z" transform="translate(-5419.62 -732.393)" fill="#fff"/>
      <path id="Path_199" data-name="Path 199" d="M5439.045,749.98c.139-.165.284-.325.432-.482h-.865C5438.761,749.655,5438.906,749.815,5439.045,749.98Z" transform="translate(-5397.967 -732.393)" fill="#fff"/>
      <path id="Path_200" data-name="Path 200" d="M5488.515,749.98c.139-.165.284-.325.432-.482h-.864C5488.229,749.655,5488.375,749.815,5488.515,749.98Z" transform="translate(-5441.272 -732.393)" fill="#fff"/>
      <path id="Path_201" data-name="Path 201" d="M5414.311,749.98c.14-.165.284-.325.432-.482h-.865C5414.025,749.655,5414.171,749.815,5414.311,749.98Z" transform="translate(-5376.314 -732.393)" fill="#fff"/>
      <path id="Path_202" data-name="Path 202" d="M5186.6,623.987h-.372V616.5a3.677,3.677,0,0,0-3.734-3.617h0a3.678,3.678,0,0,0-3.736,3.617v-5.188a3.678,3.678,0,0,0-3.736-3.617h0a3.737,3.737,0,0,1-7.47,0h0a3.678,3.678,0,0,0-3.736,3.617v13.466h-1.568c.191.2.378.394.556.6a7.634,7.634,0,0,1,.748,1.006,8.242,8.242,0,0,1-1.04-.724q-.486-.394-.931-.827c-.02-.018-.038-.038-.055-.056h-.64l-.056.056q-.428.416-.9.795a7,7,0,0,1,.541.757.873.873,0,0,0-1.619,0,7.14,7.14,0,0,1,.541-.757q-.466-.379-.894-.795c-.02-.018-.038-.038-.056-.056h-.64c-.019.018-.036.038-.056.056q-.429.416-.9.795a6.878,6.878,0,0,1,.542.757.873.873,0,0,0-1.618,0,6.74,6.74,0,0,1,.541-.757q-.467-.379-.9-.795l-.054-.056h-.639l-.056.056q-.428.416-.9.795a6.814,6.814,0,0,1,.542.757,7.143,7.143,0,0,1-.809-.545,7.342,7.342,0,0,1-.81.545,6.871,6.871,0,0,1,.541-.757q-.467-.379-.9-.795c-.019-.018-.035-.038-.055-.056h-.639l-.056.056q-.428.416-.895.795a6.8,6.8,0,0,1,.54.757.872.872,0,0,0-1.617,0,6.94,6.94,0,0,1,.542-.757q-.467-.379-.9-.795c-.02-.018-.036-.038-.056-.056h-.64l-.056.056q-.43.416-.894.795a7.279,7.279,0,0,1,.541.757,7.309,7.309,0,0,1-.811-.545,7.174,7.174,0,0,1-.808.545,7.067,7.067,0,0,1,.541-.757q-.466-.379-.895-.795l-.056-.056h-.639c-.019.018-.036.038-.055.056q-.429.416-.9.795a6.736,6.736,0,0,1,.54.757,7.416,7.416,0,0,1-.809-.545,7.1,7.1,0,0,1-.809.545,7,7,0,0,1,.541-.757q-.467-.379-.895-.795l-.056-.056h-.639c-.02.018-.037.038-.057.056q-.428.416-.895.795a6.936,6.936,0,0,1,.541.757,7.187,7.187,0,0,1-.809-.545,7.277,7.277,0,0,1-.809.545,6.925,6.925,0,0,1,.54-.757q-.466-.379-.9-.795l-.055-.056h-.64c-.019.018-.036.038-.054.056q-.447.433-.934.827a8.1,8.1,0,0,1-1.039.724,7.815,7.815,0,0,1,.748-1.006c.178-.207.365-.406.555-.6h-1.567V611.312a3.679,3.679,0,0,0-3.736-3.617h0a3.737,3.737,0,0,1-7.471,0h0a3.677,3.677,0,0,0-3.735,3.617V616.5a3.678,3.678,0,0,0-3.737-3.617h0a3.678,3.678,0,0,0-3.735,3.617v7.487h-.371a1.8,1.8,0,0,0-1.83,1.77v4.591a1.8,1.8,0,0,0,1.83,1.77h.371v7.487a3.678,3.678,0,0,0,3.735,3.617h0a3.678,3.678,0,0,0,3.737-3.617v5.187a3.677,3.677,0,0,0,3.735,3.617h0a3.737,3.737,0,0,1,7.471,0h0a3.679,3.679,0,0,0,3.736-3.617V631.327h26.762v13.466a3.678,3.678,0,0,0,3.736,3.617h0a3.737,3.737,0,0,1,7.47,0h0a3.678,3.678,0,0,0,3.736-3.617v-5.187a3.678,3.678,0,0,0,3.736,3.617h0a3.677,3.677,0,0,0,3.734-3.617v-7.487h.372a1.8,1.8,0,0,0,1.83-1.77v-4.591A1.8,1.8,0,0,0,5186.6,623.987Zm-67.658-.784a1.31,1.31,0,1,1-1.132,0,19.551,19.551,0,0,1-.153-2.49,19.828,19.828,0,0,1,.156-2.491,1.309,1.309,0,1,1,1.128,0,20.3,20.3,0,0,1,0,4.981Zm7.47-4.981a1.31,1.31,0,1,1-1.131,0,19.555,19.555,0,0,1-.153-2.49,19.921,19.921,0,0,1,.156-2.49,1.309,1.309,0,1,1,1.127,0,19.922,19.922,0,0,1,.156,2.49A19.556,19.556,0,0,1,5126.411,618.222Zm7.472,0a1.31,1.31,0,1,1-1.132,0,19.377,19.377,0,0,1-.153-2.49,20.013,20.013,0,0,1,.155-2.49,1.309,1.309,0,1,1,1.127,0,19.919,19.919,0,0,1,.155,2.49A19.643,19.643,0,0,1,5133.882,618.222Zm34.232,0a1.309,1.309,0,1,1-1.13,0,19.645,19.645,0,0,1-.154-2.49,19.922,19.922,0,0,1,.157-2.49,1.309,1.309,0,1,1,1.126,0,20.013,20.013,0,0,1,.155,2.49A19.645,19.645,0,0,1,5168.115,618.222Zm7.472,0a1.31,1.31,0,1,1-1.131,0,20.144,20.144,0,0,1,0-4.981,12.041,12.041,0,0,1,.563-2.49,11.887,11.887,0,0,1,.564,2.49,20.109,20.109,0,0,1,.156,2.49A19.828,19.828,0,0,1,5175.586,618.222Zm7.47,4.981a1.309,1.309,0,1,1-1.131,0,19.551,19.551,0,0,1-.154-2.49,19.92,19.92,0,0,1,.156-2.491,1.309,1.309,0,1,1,1.127,0,19.735,19.735,0,0,1,.155,2.491A19.2,19.2,0,0,1,5183.057,623.2Z" transform="translate(-5112.438 -607.695)" fill="#fff"/>
      <path id="Path_203" data-name="Path 203" d="M5340.107,749.98c.139-.165.284-.325.432-.482h-.865C5339.822,749.655,5339.967,749.815,5340.107,749.98Z" transform="translate(-5311.359 -732.393)" fill="#fff"/>
      <path id="Path_204" data-name="Path 204" d="M5389.577,749.98c.139-.165.283-.325.432-.482h-.864C5389.291,749.655,5389.437,749.815,5389.577,749.98Z" transform="translate(-5354.663 -732.393)" fill="#fff"/>
      <path id="Path_205" data-name="Path 205" d="M5364.841,749.98c.14-.165.285-.325.433-.482h-.866C5364.557,749.655,5364.7,749.815,5364.841,749.98Z" transform="translate(-5333.01 -732.393)" fill="#fff"/>
    </g>
  </g>
</svg>
