<svg xmlns="http://www.w3.org/2000/svg" width="51.859" height="72.437" viewBox="0 0 51.859 72.437">
  <g id="medicine" transform="translate(0.35 0.35)">
    <path id="Path_152" data-name="Path 152" d="M117.155,26.746V21.434H121.9a1.122,1.122,0,0,0,1.114-1.147V6.153a1.142,1.142,0,0,0-.32-.814A1.115,1.115,0,0,0,121.9,5H83.361a1.1,1.1,0,0,0-1.074,1.154V20.287a1.09,1.09,0,0,0,1.074,1.147H88v5.312A11.009,11.009,0,0,0,77,37.5V65.969c0,5.931,5.078,10.768,11.382,10.768h28.4c6.3,0,11.382-4.836,11.382-10.768V37.5A11.009,11.009,0,0,0,117.155,26.746Zm3.573-7.6H114.3V7.286h6.431Zm-16.72,0V7.286h8V19.147Zm-10.289,0V7.286h8V19.147ZM84.574,7.286h6.859V19.147H84.574Zm30.3,14.147v5.287H90.29V21.434Zm2.144,17.148V64.876H79.286V38.582Zm8.86,27.387c0,4.671-4.052,8.481-9.1,8.481h-28.4a8.911,8.911,0,0,1-9.06-7.288h38.784a1.231,1.231,0,0,0,1.194-1.194V37.5a1.237,1.237,0,0,0-1.193-1.2H79.322a8.91,8.91,0,0,1,9.06-7.288h28.4c5.043,0,9.1,3.817,9.1,8.488Z" transform="translate(-77 -5)" fill="#fff" stroke="#fff" stroke-width="0.7"/>
  </g>
</svg>
