<svg xmlns="http://www.w3.org/2000/svg" width="62.395" height="62.395" viewBox="0 0 62.395 62.395">
  <g id="outline" transform="translate(-16 -16)">
    <path id="Path_80" data-name="Path 80" d="M75.275,64.529V50.317a1.04,1.04,0,0,0-.3-.735l-5.5-5.5H73.2a1.04,1.04,0,0,0,.95-.618l4.16-9.359a1.04,1.04,0,0,0-.7-1.431l-4.16-1.04a1.04,1.04,0,0,0-1.182.544l-2.832,5.665H57.6a1.04,1.04,0,0,0-1.04,1.04v4.16a1.04,1.04,0,0,0,1.04,1.04h3.729l7.71,7.71V64.5l-4.647,5.577H57.725l.124-.031a1.04,1.04,0,0,0,.734-1.338l-1.04-3.12a1.04,1.04,0,0,0-.987-.711H53.191L50.281,54.2a1.044,1.044,0,0,0-.073-.191l-5.09-10.18V40.7l1.94,1.149a1.039,1.039,0,0,0,.53.145h2.86a1.04,1.04,0,0,0,1.018-.828l.65-3.12a1.04,1.04,0,0,0-.889-1.244l-2.7-.338-2.4-2.957a3.917,3.917,0,0,0-.006-4l-2.04-3.4v-.752h.26a1.822,1.822,0,0,0,1.82-1.82V19.677a3.421,3.421,0,0,0-.359-1.522,3.875,3.875,0,0,0-3.316-2.15A.65.65,0,0,0,42.388,16H39a6.324,6.324,0,0,0-4.5,1.864,4.258,4.258,0,0,1-3.031,1.255H28.479a1.04,1.04,0,0,0-.735,1.775l1.56,1.56a6.324,6.324,0,0,0,4.5,1.864h.342a6.345,6.345,0,0,0,3.531-1.069l.161-.108v2.217a1.041,1.041,0,0,0-.179.017,3.95,3.95,0,0,0-2.458,1.15l-4.617,4.617a3.616,3.616,0,0,0-1.066,2.574v.062a3.647,3.647,0,0,0,.844,2.33l4.6,5.517a1.04,1.04,0,0,0,.8.374h.754a8.877,8.877,0,0,0,.107,3.489l-2.8,8.393-7.95,6.956-2.921.974a1.039,1.039,0,0,0-.6.521l-1.04,2.08a1.04,1.04,0,0,0,.039,1l2.8,4.665H20.16a4.16,4.16,0,1,0,0,8.319h57.2a1.04,1.04,0,0,0,1.04-1.04V69.036a1.04,1.04,0,0,0-.208-.624ZM45.118,35.572,47.17,38.1a1.04,1.04,0,0,0,.679.377l2,.25L49.6,39.918H47.873l-2.756-1.633ZM48.3,54.85l2.813,10.315-2.27.567-2.229-5.2a16.187,16.187,0,0,1-.822-2.44l-.706-2.826a1.04,1.04,0,0,0-.163-.352L39.773,47.7,39.2,46.554a6.966,6.966,0,0,1-.488-1.279c0-.019-.01-.039-.016-.057A6.829,6.829,0,0,1,38.628,42h4.409v2.08a1.039,1.039,0,0,0,.11.465Zm-.356,15.226h-19.3l.16-.053a1.04,1.04,0,0,0,.711-.986v-3.6l8.9-5.931a1.04,1.04,0,0,0,.379-.455l2.447-5.711,1.875,2.626.659,2.634a18.273,18.273,0,0,0,.928,2.755l2.546,5.938ZM40.321,39.918s.637-1.971.637-2.08h2.08v2.08Zm4.014-9.336a1.823,1.823,0,0,1,.245,1.149,1.036,1.036,0,0,0-1.541.908v3.12h-4.16v-2.37l2.409-.8A1.04,1.04,0,0,0,42,31.6V29.34a3.957,3.957,0,0,0-.484-1.9h.936ZM39.918,20.52a2.325,2.325,0,0,1,.685-1.655l.134-.134a2.21,2.21,0,0,1,1.573-.652,1.811,1.811,0,0,1,1.18.434l-1.979.66a1.04,1.04,0,0,0-.6.521L40.158,21.2h-.24Zm0,2.76H40.8a1.04,1.04,0,0,0,.93-.575l.847-1.695,1.5-.5v2.769h-1.04A1.04,1.04,0,0,0,42,24.319v1.04h-2.08Zm-3.395-1.76a4.273,4.273,0,0,1-2.377.72h-.341a4.254,4.254,0,0,1-2.8-1.04h.467a6.324,6.324,0,0,0,4.5-1.864A4.253,4.253,0,0,1,38.557,18.1a4.389,4.389,0,0,0-.719,2.417v.123Zm-.278,18.4L31.96,34.776a1.563,1.563,0,0,1-.361-1v-.062a1.549,1.549,0,0,1,.457-1.1L36.672,28a1.9,1.9,0,0,1,3.246,1.344v1.509l-1.8.6-.585-.585a1.04,1.04,0,0,0-1.471,0l-2.08,2.08a1.04,1.04,0,0,0-.13,1.312l2.08,3.12a1.039,1.039,0,0,0,.536.41L38.6,38.5l-.474,1.422Zm.553-6.849v1.854l-.742-1.112Zm-1.4,22.19a1.04,1.04,0,0,0,.3-.454l2.118-6.354.125.25a1.024,1.024,0,0,0,.084.139l1.8,2.513L37,57.943l-8.237,5.491-1-1.5ZM23.425,64.83l.592-1.184,1.958-.653,1.465,2.2v3.1l-1.617.539ZM20.16,76.315a2.08,2.08,0,1,1,2.08-2.08A2.08,2.08,0,0,1,20.16,76.315Zm13.039,0H23.76a4.145,4.145,0,0,0,0-4.16H33.2a4.145,4.145,0,0,0,0,4.16Zm3.6,0a2.08,2.08,0,1,1,2.08-2.08A2.08,2.08,0,0,1,36.8,76.315Zm13.039,0H40.4a4.145,4.145,0,0,0,0-4.16h9.439a4.145,4.145,0,0,0,0,4.16Zm3.6,0a2.08,2.08,0,1,1,2.08-2.08,2.08,2.08,0,0,1-2.08,2.08Zm-3.4-6.46L49.5,67.713l3.027-.757h3.282l.448,1.343Zm13.8,6.46h-6.8a4.145,4.145,0,0,0,0-4.16h6.8ZM58.637,42v-2.08H70.076a1.04,1.04,0,0,0,.93-.575l2.747-5.494,2.15.538L72.52,42Zm5.63,2.08h2.258l6.67,6.67V63.836h-2.08V51.357a1.04,1.04,0,0,0-.3-.735ZM76.315,76.315h-10.4V71.492l4.647-5.577h3.153l2.6,3.466Z" transform="translate(0 0)" fill="#e41c26"/>
  </g>
</svg>
