<svg xmlns="http://www.w3.org/2000/svg" width="62.395" height="40.557" viewBox="0 0 62.395 40.557">
  <path id="sit-up" d="M21.082,137.547,30,140.977l10.3,9.445a8.1,8.1,0,0,0,5.486,2.134h6.086a8.359,8.359,0,0,0,6.655-3.328l3.087-4.116,3.256,4.652v1.752a1.04,1.04,0,0,0,1.04,1.04H77.354a1.04,1.04,0,0,0,1.04-1.04v-2.08a1.04,1.04,0,0,0-.524-.9l-4.755-2.717-2.392-11.958a5.214,5.214,0,0,0-5.1-4.18h-6.9a8.731,8.731,0,0,0-6.215,2.574l-2.638,2.638L47.2,130.43V118.485a6.518,6.518,0,0,0-.685-2.9,6.45,6.45,0,0,0-5.8-3.585,13.532,13.532,0,0,0-3.891.571l-8.641,2.592a1.04,1.04,0,0,0-.566.419l-1.882,2.823-2.781.927a1.04,1.04,0,0,0-.461.31l-4.581,5.345a7.929,7.929,0,0,0,3.174,12.56ZM41.71,148.889l-1.51-1.384,11.157-11.157,4.577,4.577-5.361,7.2a6.039,6.039,0,0,1-8.863.763Zm15.158-.908a6.269,6.269,0,0,1-4.992,2.5h-.666a8.01,8.01,0,0,0,1.015-1.089l.01-.013,6.374-8.561,1.754,2.506Zm19.446,2.5H66.955v-.609l3.293-3.293,6.066,3.466Zm-10.69-18.718a3.128,3.128,0,0,1,3.059,2.508l1.922,9.611-3.8-8.872a8.78,8.78,0,0,0-2.4-3.247Zm-6.9,0a6.7,6.7,0,0,1,6.167,4.066l3.949,9.215-2.785,2.785-6.569-9.384a1.04,1.04,0,0,0-1.686-.025l-.613.823-4.362-4.362,1.155-1.155a6.665,6.665,0,0,1,4.744-1.965Zm-10.369,4.648L38.665,146.1l-7.4-6.788a1.04,1.04,0,0,0-.329-.2L26.6,137.441l1.563-5.47,3,.749a5.45,5.45,0,0,0,8.756-4.258l.336-2.943h4.865v5.2a1.04,1.04,0,0,0,.148.535Zm-10.081-11.92-2.823-2.823-.725-.725-.034-.033,4.043-.449ZM33.247,122.4l-2.384,2.384a1.04,1.04,0,0,0-.3.735v1.649l-1.04,1.04-.951-.951.73-3.648a2.346,2.346,0,0,1,3.95-1.209Zm-2.258,7.279,1.345-1.345a1.04,1.04,0,0,0,.3-.735v-1.649l2.08-2.08L36.85,126a3.372,3.372,0,0,1-4.769,4.769ZM26.7,128.334l1.5,1.5-3.315-.829L26.7,126l-.278,1.392A1.04,1.04,0,0,0,26.7,128.334Zm2.433-11.286,8.283-2.485a11.452,11.452,0,0,1,3.292-.483,4.381,4.381,0,0,1,3.94,2.435,4.428,4.428,0,0,1,.465,1.97v4.954H40.489l.462-4.042a1.04,1.04,0,0,0-1.148-1.152l-9.359,1.04a1.04,1.04,0,0,0-.62.3l-1.183,1.183-.992-1.487Zm-9.649,9.293,4.394-5.126,2.093-.7,1.166,1.75-1.477,1.477a1.036,1.036,0,0,0-.156.2l-3.12,5.2a1.04,1.04,0,0,0,.639,1.544l3.117.779-1.493,5.225-2.822-1.085a5.849,5.849,0,0,1-2.341-9.265Z" transform="translate(-15.999 -112)" fill="#e41c26"/>
</svg>
