<svg xmlns="http://www.w3.org/2000/svg" width="74.397" height="65.304" viewBox="0 0 74.397 65.304">
  <path id="stationary-bike" d="M74.024,65.347a11.137,11.137,0,0,0-3.348-19.632l-6.01-1.843,2.72-12.945a20.712,20.712,0,0,0,11.54-14.367A4.987,4.987,0,0,0,74.048,10.5h-.215a4.665,4.665,0,0,0-4.571,3.819,10.726,10.726,0,0,1-8.332,8.357,4.85,4.85,0,0,0-3.7,3.67,1.241,1.241,0,0,0-.124.347l-2.943,13.97L28.807,32.9l-2.356-5.869H27.8a5.312,5.312,0,0,0,1.108-10.506L14.911,13.534a6.825,6.825,0,1,0-1.43,13.5H14.63l2.331,5.836a17.927,17.927,0,0,0-4.737,2.521A17.628,17.628,0,0,0,5,49.715a17.839,17.839,0,0,0,7.82,14.747A9.92,9.92,0,0,0,5,74.15,1.658,1.658,0,0,0,6.653,75.8h71.09A1.658,1.658,0,0,0,79.4,74.15,9.917,9.917,0,0,0,74.024,65.347ZM61.608,25.908A14.039,14.039,0,0,0,72.5,14.98a1.4,1.4,0,0,1,1.331-1.174h.215a1.644,1.644,0,0,1,1.314.62,1.67,1.67,0,0,1,.331,1.43A17.364,17.364,0,0,1,62.434,29.116,1.688,1.688,0,0,1,61,28.785a1.65,1.65,0,0,1,.612-2.877ZM59.434,31.7a4.932,4.932,0,0,0,2.62.76,4.876,4.876,0,0,0,1.083-.116c.2-.041.405-.107.6-.157L61.492,42.9l-4.15-1.265ZM13.481,23.726a3.521,3.521,0,0,1-.008-7.043,3.258,3.258,0,0,1,.744.083l13.995,3a2,2,0,0,1-.413,3.96H13.481Zm11.4,8.283a17.373,17.373,0,0,0-4.679.066l-2.017-5.042H22.9ZM8.307,49.715A14.548,14.548,0,0,1,22.781,35.183a14.532,14.532,0,0,1,4.29.653L69.709,48.872a7.851,7.851,0,0,1-2.3,15.359H22.822A14.535,14.535,0,0,1,8.307,49.715ZM8.513,72.5a6.625,6.625,0,0,1,6.406-4.96H69.477a6.625,6.625,0,0,1,6.406,4.96Zm21.12-14.8,2.414,2.017.074.05c.033.025.074.05.116.074a1.336,1.336,0,0,0,.149.083c.041.025.083.041.116.058a1.666,1.666,0,0,0,.19.058c.033.008.066.017.107.025a1.24,1.24,0,0,0,.306.033h4.133a1.653,1.653,0,1,0,0-3.307H33.7L31.75,55.163a9.808,9.808,0,0,0,1.356-4.985A9.949,9.949,0,1,0,29.634,57.7ZM16.573,50.178a6.613,6.613,0,0,1,13.226,0,6.508,6.508,0,0,1-.645,2.827l-4.91-4.1a1.655,1.655,0,1,0-2.116,2.546l4.91,4.092a6.539,6.539,0,0,1-3.852,1.248A6.622,6.622,0,0,1,16.573,50.178Zm27.279,8.266A1.658,1.658,0,0,1,45.5,56.791h1.653a1.653,1.653,0,0,1,0,3.307H45.5A1.658,1.658,0,0,1,43.852,58.444Zm9.92,0a1.658,1.658,0,0,1,1.653-1.653h1.653a1.653,1.653,0,1,1,0,3.307H55.424A1.658,1.658,0,0,1,53.771,58.444Zm9.92,0a1.658,1.658,0,0,1,1.653-1.653H67A1.653,1.653,0,1,1,67,60.1H65.344A1.658,1.658,0,0,1,63.691,58.444Z" transform="translate(-5 -10.5)" fill="#fff"/>
</svg>
