<svg xmlns="http://www.w3.org/2000/svg" width="56.242" height="99.066" viewBox="0 0 56.242 99.066">
  <g id="trousers" transform="translate(-110.663)">
    <g id="Group_30" data-name="Group 30" transform="translate(110.663)">
      <g id="Group_29" data-name="Group 29" transform="translate(0)">
        <path id="Path_97" data-name="Path 97" d="M163.825,18.543l-3.77-7.814V1.935A1.935,1.935,0,0,0,158.12,0h-38.7a1.935,1.935,0,0,0-1.935,1.935V10.78l-3.745,7.763a30.811,30.811,0,0,0-2.682,18.372L120.8,97.439a1.935,1.935,0,0,0,1.91,1.627H134.9a1.935,1.935,0,0,0,1.935-1.935V42.618l1.947-4.089,1.947,4.089V97.131a1.935,1.935,0,0,0,1.935,1.935h12.19a1.935,1.935,0,0,0,1.91-1.627l9.742-60.524A30.81,30.81,0,0,0,163.825,18.543ZM145.544,3.87h10.642V9.287H145.544Zm-9.674,0h5.8V9.287h-5.8Zm-14.512,0H132V9.287H121.358Zm41.649,29.308-5.039-3.4-5-12.04a1.935,1.935,0,0,0-3.574,1.484L154.617,31.8a1.935,1.935,0,0,0,.7.861l7.173,4.842-9.286,57.7H144.6V42.18a1.936,1.936,0,0,0-.188-.832l-3.706-7.783V25.927a1.935,1.935,0,1,0-3.87,0v7.689l-3.682,7.732a1.936,1.936,0,0,0-.188.832V95.2H124.36l-9.286-57.7,7.173-4.842a1.936,1.936,0,0,0,.7-.861l5.224-12.577a1.935,1.935,0,1,0-3.574-1.484l-5,12.04-5.039,3.4a26.941,26.941,0,0,1,2.667-12.953l3.41-7.068H156.93l3.41,7.068A26.943,26.943,0,0,1,163.007,33.178Z" transform="translate(-110.663)" fill="#fff"/>
      </g>
    </g>
    <g id="Group_32" data-name="Group 32" transform="translate(136.837 16.897)">
      <g id="Group_31" data-name="Group 31" transform="translate(0)">
        <path id="Path_98" data-name="Path 98" d="M249.24,87.9a1.934,1.934,0,1,0,.567,1.368A1.95,1.95,0,0,0,249.24,87.9Z" transform="translate(-245.937 -87.33)" fill="#fff"/>
      </g>
    </g>
  </g>
</svg>
