<svg id="XMLID_1490_" xmlns="http://www.w3.org/2000/svg" width="68.079" height="68.082" viewBox="0 0 68.079 68.082">
  <g id="XMLID_330_" transform="translate(0 0)">
    <path id="XMLID_375_" d="M63.568,51.593H59.579a4.493,4.493,0,0,0-2.395.689,12.278,12.278,0,0,0-12-14.814H36.868a2.339,2.339,0,0,1-2.337-2.336v-2.19A11.976,11.976,0,0,0,40.7,22.478V9.939a4.517,4.517,0,0,0,1.729-3.553V1.33A1.33,1.33,0,0,0,41.1,0H25.051a8.3,8.3,0,0,0-8.289,8.289V22.478a11.976,11.976,0,0,0,6.166,10.464v2.19a2.339,2.339,0,0,1-2.337,2.336H12.278A12.267,12.267,0,0,0,1.908,56.291,13.226,13.226,0,0,0,2.723,67.4a1.33,1.33,0,0,0,2.322-1.3,10.563,10.563,0,0,1-.42-9.427,1.33,1.33,0,0,0-.137-1.321,9.606,9.606,0,0,1,7.79-15.229H13.57v7.311A17.48,17.48,0,0,1,11.9,54.865a1.33,1.33,0,0,0-.128.568V66.749a1.33,1.33,0,0,0,2.659,0V55.726a20.164,20.164,0,0,0,1.8-8.287V40.128h2.659v3.409a9.841,9.841,0,0,0,19.682,0V40.128H41.23v7.311a19.994,19.994,0,0,0,.436,4.154H37.739a4.526,4.526,0,0,0-4.521,4.521v7.446a4.526,4.526,0,0,0,4.521,4.521h3.933a4.528,4.528,0,0,0,4.472-3.856h7.088a10.482,10.482,0,0,1-.817,1.878,1.33,1.33,0,1,0,2.322,1.3,13.162,13.162,0,0,0,.822-1.776,4.525,4.525,0,0,0,4.021,2.458h3.989a4.526,4.526,0,0,0,4.521-4.521V56.114a4.526,4.526,0,0,0-4.521-4.521ZM25.051,2.659H39.766V6.385A1.867,1.867,0,0,1,37.9,8.25H34.713a1.33,1.33,0,1,0,0,2.659h3.324v3.253H19.422V10.909h3.324a1.33,1.33,0,1,0,0-2.659H19.422a5.636,5.636,0,0,1,5.629-5.59ZM19.422,22.478V16.822H38.038v5.656a9.308,9.308,0,1,1-18.616,0ZM28.73,50.719a7.19,7.19,0,0,1-7.182-7.182v-3.5a5,5,0,0,0,4.039-4.9V34.026a11.98,11.98,0,0,0,6.285,0v1.106a5,5,0,0,0,4.039,4.9v3.5A7.19,7.19,0,0,1,28.73,50.719ZM45.182,40.128a9.606,9.606,0,0,1,7.79,15.229c-.022.03-.039.061-.058.093h-6.77a4.515,4.515,0,0,0-1.407-2.655,17.31,17.31,0,0,1-.847-5.355V40.128h1.292ZM43.534,63.561a1.864,1.864,0,0,1-1.862,1.862H37.74a1.864,1.864,0,0,1-1.862-1.862V56.114a1.864,1.864,0,0,1,1.862-1.862h3.933a1.864,1.864,0,0,1,1.862,1.862v7.446Zm2.659-5.452h8.865v3.457H46.193ZM65.43,63.561a1.864,1.864,0,0,1-1.862,1.862H59.579a1.864,1.864,0,0,1-1.862-1.862V56.114a1.864,1.864,0,0,1,1.862-1.862h3.989a1.864,1.864,0,0,1,1.862,1.862Z" transform="translate(-0.01 0)"/>
    <path id="XMLID_382_" d="M207.321,64.7a1.33,1.33,0,1,0-.94-.39A1.339,1.339,0,0,0,207.321,64.7Z" transform="translate(-178.601 -53.79)"/>
  </g>
</svg>
